# xmcd CD database file
#
# Track frame offsets:
#	150
#	11777
#	22670
#	37020
#	47087
#	62735
#	74315
#	86315
#	98420
#	112337
#	122837
#	135695
#	148777
#	163097
#	177760
#	190665
#	203625
#	213960
#	224845
#	237590
#	248362
#	257342
#
# Disc length: 3569 seconds
#
# Revision: 1
# Processed by: cddbd v1.5.2PL0 Copyright (c) Steve Scherf et al.
# Submitted via: CDex 1.51
#
DISCID=380def16
DTITLE=Various Artist - VEE JAY, THE CHICAGO BLACK MUSIC(Disc2)
DYEAR=1997
DGENRE=Blues
TTITLE0=Calling All Blues - Junior Wells and Earl Hooker
TTITLE1=You Never Miss Your Water - Billy "THE KID" Emerson with Matt Murphy
TTITLE2=Blue And Lonesome - Memphis Slim with Matt Murphy
TTITLE3=Guiter Cha Cha - Memphis Slim with Matt Murphy
TTITLE4=Hurt My Feelings - Morris Pejoe
TTITLE5=You're gonna Need Me - Morris Pejoe
TTITLE6=You Don't Love Me - Willie Cobbs with Sammy Lawhorn
TTITLE7=You're So Hard To Please - Willie Cobbs with Sammy Lawhorn
TTITLE8=The 12 Years Old Boy - Elmore James with Wayne Bennett
TTITLE9=Elmore's Contribution To Jazz - Elmore James
TTITLE10=She's Five Feet Three - L.C.McKinley
TTITLE11=Down With It - L.C.McKinley
TTITLE12=The Telephone Is Ringing - Pee Wee Crayton
TTITLE13=Tie It Down(Benedict Canyon Boogie) - Pee Wee Crayton
TTITLE14=I Was Fooled - Billy Boy Arnold with Jody Williams
TTITLE15=Don't Stay Out All Night - Billy Boy Arnold with Jody Williams
TTITLE16=Fanny's Place - Larry Birdsong with Lefty Bates
TTITLE17=Ain't Nothin' But A Fool - Larry Birdsong with Lefty Bates
TTITLE18=I'll Run My Business - Larry Birdsong with Lefty Bates 
TTITLE19=Wake Up - Lee Diamond with Roy Gaines
TTITLE20=Upsetter Rock - Lee Diamond with Roy Gaines
TTITLE21=Money Honey - Little Richard with Jimi Hendrix
EXTD=YEAR: 1997
EXTT0=
EXTT1=
EXTT2=
EXTT3=
EXTT4=
EXTT5=
EXTT6=
EXTT7=
EXTT8=
EXTT9=
EXTT10=
EXTT11=
EXTT12=
EXTT13=
EXTT14=
EXTT15=
EXTT16=
EXTT17=
EXTT18=
EXTT19=
EXTT20=
EXTT21=
PLAYORDER=
